<?xml version="1.0" encoding="UTF-8"?>
<svg id="Layer_1" xmlns="http://www.w3.org/2000/svg" version="1.1" viewBox="0 0 4000 4000">
  <!-- Generator: Adobe Illustrator 29.1.0, SVG Export Plug-In . SVG Version: 2.1.0 Build 142)  -->
  <defs>
    <style>
      .st0 {
        fill: #1c1c1c;
      }

      .st1 {
        fill: #fff;
      }

      .st2 {
        fill: #ea2333;
      }
    </style>
  </defs>
  <g>
    <circle class="st2" cx="505.48" cy="1998.65" r="371.79"/>
    <path class="st1" d="M714.52,1983.23c.54,5.95.84,11.96.84,18.04,0,112.49-94.8,203.67-211.75,203.67s-211.75-91.19-211.75-203.67,94.8-203.67,211.75-203.67c12.98,0,25.68,1.13,38.02,3.28v-85.43c-12.41-1.55-25.06-2.35-37.9-2.35-162.86,0-294.88,128.45-294.88,286.9s132.02,286.9,294.88,286.9,294.88-128.45,294.88-286.9c0-5.63-.19-11.22-.51-16.77h-83.57Z"/>
    <path class="st1" d="M502.91,1878.3c-69.18,0-125.26,55.23-125.26,123.36s56.08,123.36,125.26,123.36,125.26-55.23,125.26-123.36-56.08-123.36-125.26-123.36ZM502.91,2072.58c-39.17,0-70.92-31.75-70.92-70.92s31.75-70.92,70.92-70.92,70.92,31.75,70.92,70.92-31.75,70.92-70.92,70.92Z"/>
  </g>
  <g>
    <path class="st0" d="M1333.87,2180.92c-34.27-6.49-66.19-22.43-90.87-47.07-42.64-42.58-59.15-103.69-51.44-176.01,8.04-79.29,60.71-130.45,130.51-147.16,22.66-5.43,46.11-6.58,69.29-4.29,64.33,6.38,97.84,28.98,97.84,28.98l8.36-94.5s-184.5-67.82-323.36,32.46c-73.93,50.14-113.79,158.14-99.64,271.93,14.14,113.79,82.29,214.07,259.71,230.79,104.79,6.43,165.86-14.79,165.86-14.79l-4.5-100.29s-72.65,36.82-161.76,19.94Z"/>
    <path class="st0" d="M1853.7,1996.41c28.29-3,121.29-24,108.86-154.71-12.43-130.71-199.82-117.86-199.82-117.86h-177.75v549.96h111.54l.32-228.54,35.57.43c57.43-1.29,78.43,58.71,78.43,58.71l65.14,169.39h124.02l-88.02-212.25c-19.71-49.29-58.29-65.14-58.29-65.14ZM1844.57,1899.55c-12.49,63.17-90.73,60.44-90.73,60.44h-57.86v-150h56.57c45.12,0,70.89,9.27,84.9,38.03,7.79,15.99,10.57,34.08,7.12,51.53Z"/>
    <polygon class="st0" points="2281.41 1953.13 2148.98 1723.49 2021.27 1723.49 2222.7 2054.27 2222.7 2273.8 2333.91 2273.8 2333.91 2052.34 2532.55 1723.49 2414.7 1723.49 2281.41 1953.13"/>
    <polygon class="st0" points="2717.7 1723.49 2606.48 1723.49 2606.48 2274.13 2933.7 2274.13 2933.7 2184.13 2717.7 2184.13 2717.7 1723.49"/>
    <path class="st0" d="M3256.41,1710.56c-180,0-268.71,128.75-268.71,287.57s86.14,290.78,268.71,287.57c192.21-3.38,268.71-128.75,268.71-287.57s-84.86-287.57-268.71-287.57ZM3257.93,2200.2c-98.83-.03-151.74-90.58-151.74-202.31s57.64-202.31,151.74-202.31,151.74,90.58,151.74,202.31-54.26,202.34-151.74,202.31Z"/>
    <path class="st0" d="M3711.5,1711.74c-70.09,0-127.12,57.02-127.12,127.12s57.02,127.12,127.12,127.12,127.12-57.02,127.12-127.12-57.02-127.12-127.12-127.12ZM3711.5,1939.97c-55.75,0-101.12-45.36-101.12-101.12s45.36-101.12,101.12-101.12,101.12,45.36,101.12,101.12-45.36,101.12-101.12,101.12Z"/>
    <path class="st0" d="M3740.27,1838.86c17.36-7.66,24.21-17.73,24.21-36.8s-9.21-31.29-49.07-33.21h-54v139.29h33.43v-57h8.79s13.71-1.29,19.29,15.21l16.79,41.79h36.14l-23.14-51.43s-2.36-9.32-12.43-17.84ZM3713.69,1826.38h-18.85v-33.34h18.85c9.21,0,16.67,7.46,16.67,16.67s-7.46,16.67-16.67,16.67Z"/>
  </g>
</svg>